:SAMPLES-PER-SECOND 30
:FRAME-RANGE 1-1390
:FULLY-SPECIFIED
:DEGREES
1000
root  -18.2463 40.2909 -69.4961 168.898 72.5282 175.37
RightUpLeg  -4.75033 -6.39473 1.75872
RightLeg  12.5207 -16.6735 -1.74973
RightFoot  1.64814 0.160242 -1.30804
RightToes  -2.9104e-010 0 -3.6325e-017
Spine  20.5138 1.0572 -0.588259
Spine1  0.242904 -2.73644 2.18469
HEad  9.1068 32.8417 -17.9107
LeftShoulder1  2.74415 -4.37916 -28.7628
LeftArm  96.6463 -33.3604 -89.8659
LeftForeArm  -13.1554 -19.6024 -9.88822
LeftHand  -0.0438921 2.85553 1.34367
RightShoulder  12.542 20.8094 44.9756
RightArm  27.4785 5.59457 21.7839
RightForeArm  29.1505 30.7131 5.08213
RightHand  1.08503 6.94907 9.80085
LeftUpLeg  -97.3225 23.0659 -73.2229
LeftLeg  122.855 -3.65147 4.73473
LeftFoot  12.5079 2.54596 -12.3822
LeftToes  5.45371e-012 -1.3743e-010 1.09575e-010
1001
root  -18.9187 40.7606 -69.4836 170.517 68.6565 176.005
RightUpLeg  -4.90162 -5.83079 1.96455
RightLeg  11.0538 -14.4274 -0.801383
RightFoot  4.54764 -0.345789 2.69989
RightToes  -2.9104e-010 0 -3.6325e-017
Spine  20.9135 0.851943 -0.494867
Spine1  -1.06201 -2.8213 1.81172
HEad  9.27952 30.3555 -16.6092
LeftShoulder1  2.70373 -4.38405 -28.2156
LeftArm  99.702 -33.1299 -89.468
LeftForeArm  -17.7899 -20.3718 -9.25685
LeftHand  -0.0309259 2.75059 0.724857
RightShoulder  12.851 21.3779 45.0216
RightArm  27.5641 6.07796 21.6252
RightForeArm  29.4249 30.7761 5.08177
RightHand  1.18137 7.06432 10.5923
LeftUpLeg  -98.4983 21.6701 -74.2296
LeftLeg  121.836 -4.43231 6.07813
LeftFoot  12.5892 2.82664 -13.6518
LeftToes  5.45371e-012 -1.3743e-010 1.09575e-010
1002
root  -19.4075 40.7426 -69.3233 172.834 64.5359 179.044
RightUpLeg  -4.37972 -6.23857 4.91114
RightLeg  15.6956 -8.35929 -1.40752
RightFoot  2.62289 -0.372265 3.18453
RightToes  -2.9104e-010 0 -3.6325e-017
Spine  21.2877 1.02052 -1.33683
Spine1  -0.96212 -3.2358 3.24744
HEad  8.20804 27.4553 -15.1895
LeftShoulder1  2.73527 -4.48204 -28.1898
LeftArm  99.2529 -33.7909 -89.6362
LeftForeArm  -17.6115 -20.2167 -9.43603
LeftHand  -0.035935 3.03281 0.993724
RightShoulder  13.0819 22.0088 44.6675
RightArm  27.472 7.25173 21.8028
RightForeArm  29.2649 30.0565 4.92281
RightHand  1.18802 7.25873 10.4801
LeftUpLeg  -98.8928 21.868 -74.0672
LeftLeg  121.564 -4.28191 5.91929
LeftFoot  12.4222 2.55873 -12.4855
LeftToes  5.45371e-012 -1.3743e-010 1.09575e-010
1003
root  -19.9158 40.278 -69.2023 173.647 59.7597 -179.646
RightUpLeg  -4.69144 -4.43898 8.02639
RightLeg  23.3573 -7.22632 -3.62866
RightFoot  -0.708327 -0.35473 3.75767
RightToes  -2.9104e-010 0 -3.6325e-017
Spine  21.1362 0.860521 -2.9288
Spine1  -0.333641 -3.8131 4.66536
HEad  8.26464 24.1539 -12.376
LeftShoulder1  2.808 -4.64481 -28.4047
LeftArm  96.2995 -34.5524 -89.5667
LeftForeArm  -15.1237 -19.5166 -10.121
LeftHand  -0.0375249 3.33916 1.10211
RightShoulder  13.4124 22.309 45.2855
RightArm  28.038 8.53389 21.7613
RightForeArm  29.1982 28.6526 4.60619
RightHand  1.17224 7.51289 10.121
LeftUpLeg  -98.4207 22.0456 -74.0643
LeftLeg  121.137 -3.39752 4.67657
LeftFoot  11.3665 2.64604 -13.4754
LeftToes  5.45371e-012 -1.3743e-010 1.09575e-010
1004
root  -20.3623 39.4752 -69.2023 173.192 53.7542 -179.903
RightUpLeg  -4.709 -6.91047 9.04657
RightLeg  30.7238 -7.18281 -4.82742
RightFoot  -7.05174 -0.210436 4.3357
RightToes  -2.9104e-010 0 -3.6325e-017
Spine  20.2255 0.10638 -4.38815
Spine1  0.625907 -4.85234 5.33253
HEad  9.03251 19.9576 -10.3002
LeftShoulder1  2.90129 -4.74251 -29.145
LeftArm  93.5123 -34.9448 -89.1995
LeftForeArm  -12.5169 -18.9061 -10.6731
LeftHand  -0.0375995 3.57614 1.22475
RightShoulder  13.4748 22.3156 45.4933
RightArm  29.3633 8.97067 21.8556
RightForeArm  28.6426 27.7993 4.44556
RightHand  1.16907 7.58477 10.0333
LeftUpLeg  -96.0313 21.8349 -74.1844
LeftLeg  120.799 -2.47944 3.32251
LeftFoot  10.4361 2.63303 -13.9645
LeftToes  5.45371e-012 -1.3743e-010 1.09575e-010
